<?xml version="1.0" encoding="utf-8"?>
<!-- Generator: Adobe Illustrator 15.0.0, SVG Export Plug-In . SVG Version: 6.00 Build 0)  -->
<!DOCTYPE svg PUBLIC "-//W3C//DTD SVG 1.1//EN" "http://www.w3.org/Graphics/SVG/1.1/DTD/svg11.dtd">
<svg version="1.1" id="Layer_1" xmlns="http://www.w3.org/2000/svg" xmlns:xlink="http://www.w3.org/1999/xlink" x="0px" y="0px"
	 width="261.053px" height="88.766px" viewBox="117.962 206.615 261.053 88.766"
	 enable-background="new 117.962 206.615 261.053 88.766" xml:space="preserve">
<path fill="#FFFFFF" d="M214.34,295.381c-0.446,0-0.869-0.094-1.253-0.262l-45.65-16.221l-45.295,16.295
	c-1.625,0.582-3.411-0.26-3.994-1.881c-0.585-1.623,0.257-3.412,1.88-3.996l46.345-16.672c0.683-0.244,1.427-0.246,2.102-0.004
	l42.744,15.188v-9.834l-43.782-15.555l-45.295,16.294c-0.955,0.345-2.02,0.201-2.853-0.384c-0.832-0.586-1.326-1.538-1.326-2.555
	v-16.461c0-1.316,0.827-2.492,2.065-2.938l46.345-16.673c0.683-0.244,1.423-0.245,2.102-0.004l42.744,15.188v-9.834l-43.782-15.555
	l-45.295,16.295c-0.955,0.344-2.02,0.2-2.853-0.384c-0.832-0.585-1.326-1.538-1.326-2.555v-16.462c0-1.318,0.827-2.492,2.065-2.939
	l46.345-16.672c0.683-0.244,1.423-0.246,2.102-0.005l46.911,16.668c1.625,0.578,2.476,2.363,1.898,3.989
	c-0.581,1.626-2.364,2.476-3.989,1.897l-45.859-16.294l-43.23,15.551v9.825l42.166-15.17c0.683-0.245,1.424-0.246,2.103-0.003
	l46.911,16.668c1.245,0.443,2.077,1.622,2.077,2.943v16.461c0,1.015-0.493,1.966-1.321,2.552c-0.829,0.586-1.891,0.729-2.846,0.391
	l-45.859-16.294l-43.23,15.552v9.824l42.166-15.17c0.683-0.245,1.424-0.246,2.103-0.004l46.911,16.668
	c1.245,0.443,2.077,1.621,2.077,2.942v16.469C217.462,293.982,216.065,295.381,214.34,295.381"/>
<g>
	<g>
		<path fill="#1B3967" d="M256.329,239.441h5.427c0.826,0,1.701-0.029,2.624-0.086c0.925-0.056,1.76-0.226,2.507-0.509
			c0.747-0.284,1.365-0.728,1.859-1.331c0.49-0.603,0.736-1.451,0.736-2.546c0-1.02-0.217-1.829-0.649-2.433
			c-0.434-0.603-0.982-1.066-1.651-1.387s-1.436-0.539-2.301-0.651c-0.864-0.113-1.709-0.17-2.537-0.17h-6.015L256.329,239.441
			L256.329,239.441z M247.128,222.861h16.16c2.125,0,4.139,0.198,6.046,0.594c1.908,0.396,3.578,1.057,5.014,1.981
			c1.435,0.925,2.574,2.169,3.422,3.734c0.846,1.565,1.268,3.518,1.268,5.856c0,2.83-0.767,5.234-2.301,7.215
			c-1.533,1.98-3.774,3.234-6.725,3.762l10.617,16.919h-11.027l-8.73-16.013h-4.542v16.013h-9.2v-40.063H247.128z"/>
	</g>
	<rect x="289.419" y="222.861" fill="#1B3967" width="9.2" height="40.063"/>
	<g>
		<path fill="#1B3967" d="M331.827,232.65c-0.747-0.905-1.761-1.575-3.038-2.009c-1.277-0.434-2.487-0.651-3.627-0.651
			c-0.669,0-1.357,0.077-2.064,0.227c-0.708,0.15-1.377,0.387-2.005,0.707c-0.631,0.321-1.143,0.746-1.534,1.273
			c-0.396,0.528-0.591,1.17-0.591,1.924c0,1.208,0.473,2.131,1.416,2.772c0.943,0.642,2.133,1.189,3.567,1.641
			c1.436,0.453,2.98,0.906,4.631,1.358c1.651,0.453,3.194,1.094,4.631,1.924c1.436,0.83,2.624,1.943,3.568,3.339
			c0.943,1.396,1.414,3.264,1.414,5.602c0,2.227-0.432,4.169-1.296,5.828c-0.865,1.661-2.035,3.037-3.51,4.131
			c-1.474,1.096-3.185,1.906-5.132,2.435c-1.945,0.527-4.002,0.791-6.163,0.791c-2.714,0-5.23-0.396-7.551-1.188
			c-2.321-0.792-4.482-2.073-6.486-3.849l6.546-6.903c0.943,1.208,2.133,2.141,3.567,2.801c1.436,0.661,2.921,0.99,4.454,0.99
			c0.747,0,1.505-0.084,2.271-0.254c0.767-0.171,1.455-0.425,2.065-0.764c0.609-0.339,1.101-0.773,1.474-1.302
			c0.374-0.527,0.561-1.15,0.561-1.867c0-1.208-0.481-2.158-1.445-2.857c-0.964-0.698-2.173-1.292-3.627-1.783
			c-1.455-0.49-3.029-0.98-4.718-1.472c-1.692-0.489-3.265-1.15-4.721-1.981c-1.454-0.828-2.663-1.923-3.627-3.281
			c-0.964-1.359-1.445-3.15-1.445-5.375c0-2.15,0.443-4.036,1.328-5.659c0.885-1.621,2.063-2.979,3.54-4.074
			c1.474-1.094,3.174-1.915,5.102-2.461c1.926-0.547,3.911-0.821,5.958-0.821c2.358,0,4.639,0.32,6.841,0.962
			c2.202,0.642,4.188,1.717,5.957,3.225L331.827,232.65z"/>
	</g>
	<polygon fill="#1B3967" points="349.582,222.861 377.951,222.861 377.951,231.009 358.783,231.009 358.783,238.478 
		376.891,238.478 376.891,246.626 358.783,246.626 358.783,254.775 379.015,254.775 379.015,262.924 349.582,262.924 	"/>
</g>
<g>
	<g>
		<path fill="#4497CB" d="M247.266,278.85h2.713v2.391h0.065c0.291-0.904,2.165-2.777,4.911-2.777c2.26,0,3.813,0.969,4.782,2.842
			c1.002-1.873,3.004-2.842,4.846-2.842c4.718,0,5.815,3.359,5.815,6.783v8.918h-2.909v-8.529c0-2.326-0.482-4.458-3.293-4.458
			c-2.812,0-3.91,1.905-3.91,4.62v8.367h-2.906v-8.013c0-2.907-0.42-4.976-3.232-4.976c-2.099,0-3.972,1.582-3.972,5.039v7.949
			h-2.908L247.266,278.85L247.266,278.85z"/>
		<path fill="#4497CB" d="M284.616,291.838c3.101,0,5.04-2.229,5.04-5.331c0-3.103-1.939-5.331-5.04-5.331
			c-3.103,0-5.04,2.23-5.04,5.331C279.576,289.608,281.514,291.838,284.616,291.838 M284.616,278.463
			c4.554,0,8.142,3.585,8.142,8.045c0,4.457-3.588,8.044-8.142,8.044c-4.556,0-8.142-3.586-8.142-8.044
			C276.475,282.048,280.061,278.463,284.616,278.463"/>
		<path fill="#4497CB" d="M311.272,286.507c0-3.103-1.938-5.33-5.039-5.33c-3.103,0-5.04,2.229-5.04,5.33
			c0,3.102,1.938,5.331,5.04,5.331C309.334,291.838,311.272,289.608,311.272,286.507 M314.181,294.164h-2.908v-2.198h-0.065
			c-1.129,1.649-3.261,2.586-5.329,2.586c-4.75,0-7.787-3.522-7.787-8.045c0-4.587,3.069-8.045,7.787-8.045
			c2.196,0,4.297,1.001,5.329,2.585h0.065v-11.308h2.908V294.164z"/>
		<path fill="#4497CB" d="M334.568,294.164h-2.908v-2.359h-0.065c-0.742,1.615-2.68,2.746-5.038,2.746
			c-2.974,0-5.558-1.777-5.558-5.848v-9.854h2.908v9.046c0,2.875,1.647,3.942,3.489,3.942c2.423,0,4.263-1.552,4.263-5.104v-7.884
			h2.908L334.568,294.164L334.568,294.164z"/>
	</g>
	<rect x="341.617" y="269.738" fill="#4497CB" width="2.908" height="24.424"/>
	<g>
		<path fill="#4497CB" d="M359.839,286.797c-2.747,0-6.106,0.485-6.106,2.941c0,1.744,1.292,2.488,3.295,2.488
			c3.231,0,4.363-2.393,4.363-4.459v-0.971H359.839z M351.633,280.724c1.613-1.52,3.94-2.261,6.073-2.261
			c4.522,0,6.397,2.455,6.397,5.104v7.817c0,1.066,0.032,1.971,0.128,2.779h-2.584c-0.064-0.776-0.097-1.551-0.097-2.326h-0.063
			c-1.293,1.97-3.039,2.713-5.363,2.713c-2.843,0-5.299-1.615-5.299-4.588c0-3.941,3.779-5.297,8.433-5.297h2.132v-0.647
			c0-1.583-1.163-3.23-3.651-3.23c-2.229,0-3.295,0.937-4.361,1.744L351.633,280.724z"/>
		<path fill="#4497CB" d="M370.763,278.85h2.907v2.358h0.063c0.744-1.615,2.683-2.745,4.589-2.745c0.452,0,0.905,0.063,1.292,0.192
			l-0.129,3.135c-0.485-0.13-0.969-0.226-1.422-0.226c-2.844,0-4.394,1.55-4.394,4.91v7.689h-2.907V278.85L370.763,278.85z"/>
	</g>
</g>
</svg>
